<svg xmlns="http://www.w3.org/2000/svg" width="86" height="27" viewBox="0 0 86 27" fill="none">
  <path d="M0.523209 12.9323C0.523209 12.9323 0.705342 12.6218 0.644631 12.4665C0.887476 12.3889 0.887476 12.2336 0.887476 12.0784H1.13032C1.13032 12.0784 1.06961 12.2725 1.13032 12.3889C1.37317 12.3113 1.37317 12.1948 1.25174 12.0784L1.37317 12.0007L1.61601 11.3408C1.61601 11.3408 1.73743 11.1856 1.73743 11.1079V11.0303C1.73743 11.0303 1.91957 10.9915 1.85886 10.9138H1.73743C1.73743 10.9138 1.73743 10.6809 1.98028 10.7586C2.1017 10.7586 2.16241 10.8362 2.22312 10.9138C2.22312 11.2632 1.85886 11.6126 1.85886 11.9619C1.67672 12.0784 1.79814 12.2336 1.61601 12.3501C1.5553 12.4277 1.67672 12.4665 1.73743 12.5054C1.67672 12.5054 1.67672 12.4665 1.61601 12.3501C1.43388 12.4277 1.49459 12.6218 1.25174 12.6606C1.19103 12.583 1.13032 12.6606 1.06961 12.6606C1.0089 12.8159 1.13032 12.9712 0.887476 13.0876C0.766054 13.1264 0.948187 13.3593 0.887476 13.5146C1.13032 13.5146 1.0089 13.3593 1.19103 13.3205V13.6311C1.19103 13.6311 1.13032 13.6699 1.06961 13.7087C1.31245 13.7863 1.37317 13.9416 1.25174 14.0969C1.25174 14.1745 1.25174 14.2133 1.25174 14.2521C1.25174 14.3686 1.25174 14.485 1.13032 14.5627C0.948187 14.6403 1.0089 14.7956 1.06961 14.912C1.25174 14.7568 1.49459 14.6015 1.49459 14.4074C1.49459 14.3686 1.61601 14.291 1.49459 14.2133C1.37317 14.0581 1.49459 13.9416 1.67672 13.864C1.98028 14.0192 1.67672 14.2133 1.73743 14.3686C1.91957 14.3686 1.85886 14.2521 2.04099 14.2521C2.04099 14.4462 1.85886 14.6403 1.91957 14.8732C1.85886 15.3002 1.5553 15.6884 1.43388 16.0766L1.06961 17.3187C1.06961 17.3187 1.19103 17.1246 1.19103 17.047C1.31245 16.8529 1.19103 16.62 1.43388 16.4259L1.67672 16.2706V16.4259C1.67672 16.4259 1.67672 16.5424 1.73743 16.5812C1.79814 16.5424 1.73743 16.4647 1.73743 16.4259L1.85886 16.3483C1.85886 16.3483 1.98028 16.1542 2.1017 16.2706V16.62C1.91957 16.8529 1.79814 17.0858 1.91957 17.3187C1.91957 17.1246 2.22312 16.9694 2.16241 16.7753C2.16241 16.6588 2.34455 16.62 2.34455 16.5035H2.58739L2.70881 16.4259H2.83024C2.83024 16.8141 2.83024 17.2411 2.58739 17.6681C2.28383 17.7845 2.46597 17.9398 2.34455 18.0951C2.52668 18.0562 2.6481 18.0562 2.70881 17.9786C3.01237 17.7457 3.07308 17.474 3.07308 17.2023L3.31593 17.1246C3.31593 17.1246 3.31593 16.9694 3.43735 16.8917V16.7364H3.68019C3.68019 16.7364 3.68019 17.0082 3.68019 17.1246V17.2799C3.68019 17.2799 3.55877 17.3575 3.55877 17.4352H3.49806C3.49806 17.4352 3.49806 17.7457 3.37664 17.901C3.1945 18.1339 3.13379 18.3668 3.13379 18.5997C3.13379 18.7291 3.17427 18.8067 3.25521 18.8326L3.37664 18.7549C3.37664 18.7549 3.68019 18.8714 3.7409 18.6773C3.7409 18.5997 3.86233 18.5609 3.92304 18.5609C3.92304 18.5609 3.92304 18.5609 3.98375 18.5609C3.98375 18.5609 3.98375 18.5609 3.92304 18.5609V19.1043H3.55877C3.55877 19.1043 3.55877 18.9879 3.43735 18.9879C3.43735 18.9879 3.55877 19.1043 3.61948 19.1043L3.49806 19.1819C3.49806 19.1819 3.49806 19.2984 3.37664 19.3372C3.43735 19.4148 3.49806 19.5313 3.61948 19.5701H3.7409C3.7409 19.803 3.68019 19.9971 3.86233 20.1912C3.98375 20.23 3.92304 20.3076 3.86233 20.3853C3.80162 20.5017 3.86233 20.5794 3.92304 20.657V20.7346C3.92304 20.7346 3.92304 20.7735 3.92304 20.8123V21.2781C3.92304 21.2781 3.80162 21.4333 3.80162 21.511C3.92304 21.6663 4.10517 21.7827 4.04446 21.9768V22.2097C4.04446 22.2097 4.10517 22.2485 4.04446 22.2873C4.04446 22.4814 4.10517 22.6755 4.16588 22.9084C4.28731 23.0637 4.40873 23.0249 4.59086 22.986C4.59086 22.986 4.28731 22.986 4.16588 22.9084C4.16588 23.0249 4.10517 23.1801 4.22659 23.2578C4.46944 23.413 4.46944 23.6459 4.46944 23.84C4.46944 23.9565 4.46944 24.0341 4.59086 24.1117C4.71228 24.1506 4.773 24.1506 4.83371 24.1117C4.83371 23.9953 4.83371 23.8788 4.95513 23.8012L5.50153 23.9177C5.50153 23.9177 5.56224 24.0729 5.68366 24.0729C5.68366 23.9953 5.68366 23.84 5.92651 23.84L6.10864 24.3058C6.10864 24.3058 6.29078 23.9565 6.29078 23.8012C6.29078 23.3354 6.29078 22.9084 6.29078 22.4426C6.29078 21.938 6.10864 21.4333 6.16935 20.9287H6.04793C6.04793 20.9287 6.10864 20.9287 6.16935 20.9287V20.4629C6.47291 21.0064 6.59433 21.511 6.65504 22.0544C6.71575 22.0932 6.77647 22.1709 6.89789 22.1321L6.65504 22.0544C6.83718 22.2873 6.59433 22.5979 7.01931 22.792C7.01931 22.792 7.01931 22.8696 6.9586 22.8696C6.71575 22.8696 6.77647 22.9472 6.77647 23.0249C6.71576 23.413 6.9586 23.8012 7.08002 24.1894C7.08002 24.267 7.20144 24.3058 7.32287 24.267C7.32287 23.9953 7.01931 23.6848 7.44429 23.4518V23.3742C7.44429 23.3742 7.44429 23.0249 7.44429 22.8308C7.44429 22.6755 7.44429 22.5202 7.62642 22.4038H7.80856C7.80856 22.4038 7.74785 22.7531 7.92998 22.8696C7.80856 23.2578 7.92998 23.6459 8.23354 23.9953C8.23354 24.1506 8.29425 24.267 8.35496 24.3835C8.41567 24.5775 8.53709 24.3835 8.65851 24.3835C8.65851 24.4611 8.65851 24.4999 8.77994 24.5387C9.02278 24.7328 9.08349 25.0045 9.26563 25.2374C9.32634 25.3151 9.50847 25.2374 9.56918 25.3151C9.56918 25.3151 9.75132 25.4315 9.81203 25.3927C9.93345 25.1986 10.237 25.2763 10.4799 25.2374C10.4799 25.2374 10.4799 25.1986 10.4799 25.1598V25.2374C10.4799 25.2374 10.7227 25.2763 10.7227 25.1598C10.7227 25.1598 10.7227 25.1598 10.7227 25.121C10.8441 25.121 10.9655 25.0822 11.087 25.0822C11.3905 25.1598 11.4512 24.9269 11.6941 24.9269C11.8762 25.0434 12.1191 25.121 12.3619 25.0822C12.4833 25.0822 12.4833 25.0045 12.4833 24.9657C12.6047 24.9657 12.7262 24.9657 12.7869 25.0045C12.9083 25.0045 13.0904 25.0822 13.1511 24.9657L13.3333 25.0434C13.3333 25.0434 13.5154 25.0434 13.6368 25.0434H13.819C13.819 25.0434 14.0011 25.121 14.0618 25.0822C14.0618 25.0822 14.4261 25.1986 14.6082 25.1598C14.7296 25.0822 14.6082 24.9269 14.7904 24.8493C15.1546 24.7328 15.1546 24.7328 15.5796 24.8493C15.7617 24.8493 15.8832 24.8881 16.0046 24.8493C16.126 24.9657 16.2474 24.8493 16.3688 24.8493C16.551 24.8493 16.6117 24.8493 16.551 24.7328C16.551 24.694 16.6117 24.7328 16.6724 24.694C17.1581 24.9269 17.5831 24.7716 18.0688 24.6164H18.2509C18.2509 24.6164 18.2509 24.5775 18.2509 24.5387V24.3058C18.6759 24.4223 19.0401 24.4223 19.3437 24.2282H19.6473C19.6473 24.2282 19.5865 24.3058 19.5258 24.3835C19.5258 24.5775 19.5258 24.6164 19.8901 24.6164C19.8901 24.6164 19.9508 24.6164 20.0115 24.6164V24.694C20.0115 24.694 20.0115 24.8881 20.1937 24.8881C20.4972 24.8881 20.8008 25.0045 21.165 25.0045C21.2865 25.0822 21.5293 25.0434 21.5293 25.2374C21.4686 25.4704 21.5293 25.5092 21.8936 25.4704C21.8936 25.4704 21.9543 25.4703 22.015 25.5092L22.3793 25.6644C22.3793 25.6644 22.5614 25.6644 22.6221 25.6644C22.7435 25.6644 22.6828 25.8197 22.8649 25.7421C22.8649 25.7421 22.8649 25.7421 22.9864 25.7421C23.1078 25.8197 23.2899 25.7421 23.4721 25.8197C23.5328 25.8973 23.6542 25.8585 23.7149 25.8197C24.0792 25.7033 24.3827 25.548 24.6863 25.3151C24.747 25.3151 24.8684 25.3151 24.9291 25.2374C25.4755 24.8881 26.1434 24.5387 26.629 24.1894V24.1117C26.629 24.1117 26.6898 24.0729 26.7505 24.0341L27.7218 23.6459C27.7218 23.6459 28.0861 23.5295 28.2682 23.4907C28.2682 23.4907 28.2682 23.4907 28.329 23.4907C28.329 23.4907 28.329 23.4907 28.329 23.4518C28.5111 23.5295 28.6932 23.6071 28.6932 23.7624L29.4218 23.2578C29.4218 23.2578 29.786 23.1413 29.786 23.2578C29.786 23.4907 29.9074 23.3742 30.0289 23.2966C30.1503 23.2189 30.211 23.1025 30.3324 23.0249C30.4538 23.0249 30.4538 23.0249 30.4538 23.1025C30.4538 23.1025 30.3931 23.1801 30.3324 23.1801C30.3324 23.1801 30.2717 23.2189 30.211 23.2578C30.211 23.4518 29.9682 23.6071 29.8467 23.7624C29.4825 24.0729 29.1182 24.4223 29.1182 24.8493C29.1182 24.9657 29.0575 25.1986 29.4825 25.0822C29.6646 25.0434 29.6039 25.1598 29.6039 25.1986C29.6039 25.2763 29.4218 25.3927 29.6646 25.5092L29.8467 25.2374C29.8467 25.2374 29.9682 25.0822 30.0289 25.0045C30.3324 24.8493 30.211 24.694 30.0289 24.5387L30.3931 24.0729L30.7574 23.7624L31.7288 23.0637H31.8502C31.8502 23.0637 32.0931 23.1801 32.2145 23.0637C32.3359 22.9084 32.5787 22.9472 32.7002 22.8308L33.1859 22.4814H33.3073C33.3073 22.4814 33.5501 22.7143 33.5501 22.8696V22.9472C33.5501 22.9472 33.2466 23.1025 33.1251 23.2189C32.7609 23.4907 32.4573 23.84 32.0931 24.1117C31.9109 24.267 31.5467 24.4223 31.6681 24.694L33.6715 23.1801L33.793 23.1025H34.1572C34.1572 23.1025 34.1572 23.2189 34.2179 23.2189C34.3394 23.2189 34.4001 23.1801 34.4001 23.1025C34.4001 23.1025 34.4608 23.1025 34.5215 23.1025V23.413C34.2179 23.6071 33.9751 23.84 33.7323 24.0341C33.7323 24.0341 33.5501 24.267 33.368 24.3058C33.368 24.3058 33.3073 24.3446 33.2466 24.3835C33.1251 24.4999 33.0037 24.6164 33.0037 24.7716C33.2466 24.7716 33.368 24.6552 33.4287 24.5387C33.4287 24.4999 33.4287 24.4611 33.5501 24.4611C33.5501 24.4611 33.793 24.3446 33.9144 24.2282C33.9144 24.2282 33.9751 24.1894 34.0358 24.1506C34.0358 24.1506 34.0965 24.1506 34.1572 24.1506C34.1572 24.1506 34.2179 24.1506 34.2787 24.1506C34.2787 24.1894 34.2179 24.267 34.2787 24.3058C34.4001 24.3058 34.4608 24.3058 34.5215 24.2282C34.5215 24.2282 34.8251 24.0729 34.8858 24.3058C34.7643 24.4223 34.5215 24.5387 34.5822 24.7716L35.0679 24.3835L35.3107 24.2282C35.3107 24.2282 35.675 24.2282 35.7964 24.3058L35.9179 24.6164C35.9179 24.6164 36.2214 24.7328 36.2821 24.5387H36.6464C36.6464 24.5387 36.6464 24.8105 36.525 24.9269C36.525 24.9269 36.1 25.1598 35.9179 25.3151L36.0393 25.3927L36.3428 25.2374C36.3428 25.2374 36.4643 25.1986 36.525 25.2374C36.525 25.3151 36.4036 25.3927 36.525 25.5092C36.7071 25.4703 36.7678 25.3151 36.8892 25.2374V25.1598C36.8892 25.1598 37.0107 25.121 37.0107 25.0822C37.0107 25.0822 36.95 25.0822 36.8892 25.0822C36.8892 25.0822 36.95 25.0822 37.0107 25.0822L37.3749 24.7716C37.3749 24.7716 37.4356 24.7328 37.4356 24.694C37.4356 24.694 37.4356 24.694 37.4356 24.6552C37.4356 24.6164 37.4356 24.5776 37.5571 24.5776C37.7392 24.5387 37.8606 24.4611 37.9213 24.3446L38.1642 24.267C38.1642 24.267 38.2856 24.267 38.2856 24.1894C38.2856 24.1894 38.3463 24.1117 38.407 24.1117C38.7106 24.1117 38.8927 23.9565 39.1356 23.8788L39.4391 23.8012H39.5605C39.5605 23.8012 39.3784 23.8788 39.3784 23.9953C39.5605 23.9177 39.7427 23.9953 39.8034 23.8012C39.9855 23.8012 40.1677 23.8012 40.2891 23.6459C40.2891 23.6459 40.4712 23.7236 40.5926 23.6459C40.8355 23.5295 41.0783 23.413 41.3819 23.3354C41.4426 23.3354 41.564 23.3354 41.6247 23.2578L42.0497 23.1801C42.0497 23.1801 42.1711 23.1801 42.1711 23.1413C42.1711 23.1413 42.1711 23.1413 42.2318 23.1413C42.2318 23.1413 42.2318 23.1025 42.2318 23.0637V23.1413C42.2318 23.1413 42.414 23.1413 42.4747 23.1025C42.5354 23.1025 42.6568 23.1025 42.5961 23.1801C42.5961 23.2966 42.7175 23.3742 42.7782 23.4907H42.414C42.414 23.4907 42.2318 23.4907 42.2925 23.6071C42.2925 23.6071 42.1104 23.7624 41.989 23.7624C41.989 23.7624 42.0497 23.8659 42.1711 24.0729V23.8788C42.1711 23.8788 42.414 23.8012 42.5354 23.7624C42.5354 23.84 42.4747 24.0341 42.7782 23.9953C42.7782 24.0729 42.8997 24.1117 43.0211 24.1117C43.0211 24.1117 43.1425 24.0729 43.2639 24.0729L43.1425 24.3058C43.1425 24.3058 42.9604 24.3058 42.8997 24.3058L42.6568 24.3835L41.9283 24.6552C41.9283 24.6552 41.6854 24.6552 41.7461 24.7716C41.7461 24.8493 41.8676 24.7716 41.989 24.7716C41.989 24.7716 42.0497 24.7328 42.1104 24.694C42.3533 24.694 42.5961 24.5775 42.8389 24.4611C42.8997 24.4611 43.0211 24.4611 43.0818 24.3835H43.2032C43.2032 24.3835 43.3853 24.3835 43.4461 24.4611C43.4461 24.4611 43.4461 24.4999 43.4461 24.5387C43.4461 24.5387 43.3246 24.9269 43.0211 25.0045C42.6973 25.1339 42.5961 25.3021 42.7175 25.5092C42.7175 25.5092 43.2032 25.3927 43.3853 25.2763C43.3853 25.2763 43.6889 25.3539 43.8103 25.4704C43.8103 25.5092 43.9317 25.4704 43.9925 25.4704L44.4781 25.3151C44.4781 25.3151 44.7817 25.3539 44.9638 25.3151V25.4315C44.9638 25.4315 44.8424 25.548 44.8424 25.5868C44.9031 25.5868 44.9638 25.5868 44.9638 25.548L45.2067 25.3927C45.2067 25.3927 45.4495 25.2763 45.6317 25.2763C45.8745 25.2763 46.0566 25.1986 46.0566 25.0434C46.0566 25.0434 46.0566 25.0434 46.1174 25.0434C46.1174 25.0434 46.3197 25.0175 46.7245 24.9657C46.7245 24.9657 46.7852 24.9657 46.8459 24.9657C47.0887 24.9657 47.2709 24.8881 47.453 24.8105C47.8173 24.8105 48.2422 24.694 48.6065 24.694C49.0315 24.7716 49.4565 24.694 49.8814 24.5776H49.9422C49.9422 24.5776 50.3064 24.6552 50.4278 24.4999C50.4278 24.4999 50.7921 24.4999 50.9135 24.4223C50.9135 24.4223 50.9742 24.3446 51.035 24.3446C51.035 24.3446 51.2171 24.4611 51.2171 24.5776C51.1564 24.5776 51.0957 24.5776 51.0957 24.6552C50.9135 24.6552 50.8528 24.7328 50.7314 24.8105C50.61 24.8105 50.5493 24.8881 50.4886 24.9657C50.4279 24.9657 50.3064 24.9657 50.2457 25.0434C50.1243 25.0822 50.0029 25.1598 50.0636 25.2374C50.1243 25.3151 50.2457 25.2374 50.3671 25.1986C50.3671 25.1986 50.4886 25.4315 50.6707 25.4315C50.9135 25.3927 50.9135 25.1986 51.0957 25.0822C50.9743 25.0822 50.7921 25.0822 50.7314 25.0045L50.9743 24.8493L51.2171 24.7328C51.2171 24.7328 51.3385 24.9269 51.5206 25.0045C51.7028 25.0822 51.7028 24.9269 51.8242 24.8881C51.9456 24.8493 51.9456 24.7716 51.9456 24.694C51.9456 24.694 51.9456 24.6552 51.9456 24.6164H52.1885C52.1885 24.6164 52.3099 24.694 52.4313 24.6164H52.917C52.917 24.6164 53.1599 24.7328 53.1599 24.8105C53.0384 24.9657 52.7349 25.0434 52.5527 25.1986L52.4313 25.2763C52.4313 25.2763 52.1885 25.4703 51.9456 25.5092C51.8242 25.5092 51.7635 25.5868 51.7028 25.6644C51.5207 25.8197 51.2171 25.8973 51.0957 26.0914C51.2778 25.975 51.5814 26.0914 51.7028 25.975H51.8242L53.6455 25.1598L53.8884 25.0434C53.8884 25.0434 54.2527 25.121 54.3741 24.9657C54.4955 24.8493 54.6776 24.8105 54.7991 24.9657C54.7991 25.0434 54.9812 25.0822 55.1026 25.0045C55.224 24.9269 55.4062 24.9269 55.4669 24.8105H55.7097L55.4669 25.0434C55.4669 25.0434 55.8312 24.9269 55.9526 24.8105C55.9526 24.8105 56.1347 24.7328 56.3168 24.694C56.7418 24.6552 56.3168 24.5776 56.3168 24.4999L56.499 24.4223C56.499 24.4223 56.6204 24.7716 56.6204 24.9657C56.499 24.9657 56.2561 24.9657 56.3168 25.1598C56.4383 25.1598 56.5597 25.0434 56.6204 24.9657C56.8025 24.8881 57.0454 24.8493 57.2882 24.8881C57.4704 24.8881 57.7132 24.8105 57.4704 24.6552V24.5387H57.5918C57.956 24.6552 57.956 24.6552 57.956 24.3835H58.1989C58.1989 24.3835 58.4417 24.3835 58.5632 24.3835C58.6239 24.3835 58.6846 24.3058 58.7453 24.3058C58.9274 24.3058 59.0488 24.2282 59.231 24.1506C59.3524 24.0729 59.4738 24.3446 59.7167 24.3058C59.7167 24.3058 59.9595 24.2282 60.0809 24.1894C60.2631 24.2282 60.5059 24.3835 60.5666 24.1117C60.5666 24.0341 60.6273 23.9565 60.8095 23.9565C60.9309 24.0729 61.1737 24.1117 61.2345 23.9953C61.2952 23.8788 61.4773 23.8012 61.5987 23.7236C61.5987 23.7236 61.7809 23.6848 61.8416 23.6459L62.0844 23.7236C62.0844 23.7236 62.3273 23.8788 62.5701 23.84V23.3354C62.5701 23.3354 62.6915 23.1413 62.8129 23.1025C62.8737 23.1413 62.9344 23.2189 62.9344 23.2578C62.9344 23.3354 62.9344 23.3742 62.9344 23.4518C62.9344 23.4518 62.9344 23.5295 63.0558 23.5295C63.0558 23.5295 63.0558 23.4907 63.1165 23.4518C63.1165 23.4518 63.2986 23.6071 63.4808 23.5295H63.7843C63.7843 23.5295 63.7843 23.6459 63.9057 23.6848C63.9665 23.6848 63.9057 23.5683 64.0272 23.5295C64.0272 23.413 63.9665 23.2578 64.1486 23.1413C64.1486 23.1413 64.1486 23.2966 64.27 23.3354C64.3914 23.3354 64.3914 23.2578 64.3914 23.2189L64.6343 23.0637C64.6343 23.0637 64.7557 23.2578 64.7557 23.3742C64.7557 23.413 64.7557 23.4907 64.8164 23.4907C64.8164 23.4907 64.8164 23.413 64.8164 23.3742C64.8164 23.2966 64.9378 23.2189 64.9378 23.1413H65.12L65.2414 23.2189V23.2966C65.2414 23.2966 65.2414 23.5295 65.3628 23.6071V23.7624C65.3628 23.7624 65.3628 23.8788 65.4842 23.8788C65.5449 23.9953 65.6057 24.0729 65.6057 24.1894C65.6057 24.3058 65.7271 24.4611 65.8485 24.5776C65.8485 24.6164 65.9699 24.6164 65.9699 24.5776C65.9699 24.5776 66.0306 24.5776 66.0913 24.5776C66.2128 24.7328 66.3949 24.8493 66.6985 24.8881C66.6985 24.8881 66.6985 25.0434 66.8199 25.0045C67.002 25.0045 66.8806 24.8881 66.9413 24.8105C66.9413 24.7328 67.0627 24.7328 67.1842 24.7328C67.1842 24.7328 67.427 24.9269 67.6091 24.8881H67.7306C67.7306 24.8881 68.0341 24.8881 68.0948 24.7716C68.0948 24.7716 68.0948 24.7716 68.0948 24.7328L68.2162 24.6552L68.7019 24.8105L68.9448 24.7328C68.9448 24.7328 69.3698 24.8881 69.5519 24.8105C69.734 24.694 69.9162 24.7716 70.159 24.7716C70.5233 24.8881 70.3411 24.694 70.4018 24.6164C70.4018 24.6164 70.4626 24.6164 70.5233 24.6164C70.6447 24.6552 70.7661 24.694 70.7054 24.5776C70.7054 24.4999 70.584 24.4223 70.7054 24.3446C70.8268 24.3835 70.9482 24.4611 71.0697 24.5387C71.0697 24.5387 71.1911 24.2282 71.5554 24.3058C71.5554 24.3058 71.6161 24.3058 71.6768 24.3058C71.7375 24.3446 71.7982 24.3835 71.9196 24.3835C71.9196 24.3835 71.9803 24.267 72.1018 24.267C72.1018 24.3446 72.1018 24.4223 72.2839 24.4223C72.4053 24.4223 72.466 24.3058 72.466 24.267C72.466 24.1506 72.466 24.0341 72.2839 23.9565V23.6459C72.2839 23.6459 72.4053 23.2966 72.4053 23.1025C72.5875 23.0249 72.6482 22.9084 72.6482 22.792V22.365C72.7696 22.0156 72.7696 21.6274 72.7696 21.2781C72.7696 21.1616 72.7696 21.0452 73.0124 21.0064V21.084C73.0124 21.2781 73.0124 21.4722 73.0124 21.6663C73.0731 22.0544 73.0731 22.4038 73.0124 22.792C73.0124 22.9084 72.9517 23.0249 73.1946 23.0249C73.4981 23.1801 73.4981 23.1801 73.6195 23.0249C73.6803 22.9472 73.6195 22.8308 73.8017 22.7531C73.8017 22.8696 73.9838 22.9472 74.0445 23.0637C74.0445 23.0637 74.0445 23.1413 74.0445 23.1801C74.0445 23.2578 74.1052 23.3742 74.2874 23.3354C74.4088 23.3354 74.3481 23.2189 74.2874 23.1413V23.0637C74.2874 23.0637 74.5302 23.1413 74.6516 23.1801C74.6516 23.1025 74.5909 22.986 74.6516 22.9084L74.8338 23.0637V23.1413C75.0159 23.413 75.0159 23.7624 75.5623 23.8788C75.5623 23.9565 75.5623 24.0341 75.5623 24.1117C75.5623 24.1894 75.8659 24.3058 76.1087 24.267C76.2301 24.3446 76.4123 24.267 76.5337 24.3835C76.5337 24.4999 76.5337 24.6552 76.7158 24.7716C76.8979 24.7716 76.9587 24.5387 77.2015 24.7328C77.2015 24.7716 77.0801 24.8881 77.3229 24.8881C77.4444 24.8881 77.4444 24.8105 77.5051 24.7328C77.5051 24.6552 77.6265 24.5387 77.6265 24.4611C77.6265 24.4611 77.8086 24.3835 77.8693 24.4611C77.9908 24.6552 78.0515 24.4999 78.1122 24.4611C78.2943 24.4611 78.355 24.5387 78.2943 24.6552C78.2943 24.7328 78.2336 24.7716 78.2943 24.8105C78.4157 24.8105 78.4764 24.8105 78.5372 24.7328L78.6586 24.6164L78.78 24.5387C78.78 24.5387 79.1443 24.4223 79.205 24.267C79.0228 24.1894 78.9014 24.2282 78.7193 24.267C78.7193 24.267 79.0228 24.3058 79.205 24.267C79.2657 24.1894 79.3871 24.1894 79.4478 24.1894C79.4478 24.267 79.5692 24.267 79.6907 24.267C79.8121 24.3446 79.8728 24.4223 79.9335 24.5387C79.9335 24.6164 79.9942 24.5387 80.0549 24.4999C80.0549 24.4999 80.1156 24.4611 80.1764 24.4223C80.1764 24.4223 80.2371 24.4223 80.2978 24.4223H80.4192L80.5406 24.3446C80.5406 24.3446 80.7835 24.1506 80.7835 24.0341C80.7835 24.0341 80.7835 23.9953 80.7835 23.9565C80.9656 23.8788 80.9656 23.7624 81.0263 23.6459C81.512 23.5683 81.8156 23.413 81.8156 23.1025C81.6941 23.1025 81.6334 23.0249 81.512 23.0637C81.512 23.0637 81.6941 23.1413 81.8156 23.1025C82.0584 22.365 82.5441 21.7051 82.8477 20.9675C82.8477 20.8123 83.0298 20.657 83.1512 20.5017C83.3333 20.1912 83.4548 19.8807 83.3941 19.5701C83.3941 19.5701 83.3941 19.5701 83.3941 19.5313H83.4548C83.4548 19.5313 83.7583 19.2984 83.7583 19.1819C83.6369 19.1431 83.5762 19.0655 83.5762 18.9879C83.7583 18.9102 83.7583 18.8326 83.5155 18.8326C83.6369 18.7161 83.6976 18.5609 83.7583 18.4056C83.7583 18.2891 83.7583 18.1727 83.7583 18.0174C84.0619 17.474 84.0619 16.8917 84.3047 16.3871C84.4261 16.3871 84.5476 16.3871 84.669 16.3095H84.7904C84.7904 16.3095 84.7904 16.3483 84.7904 16.3871C84.7904 16.5035 84.669 16.6976 85.0333 16.7753C85.0333 16.7753 84.9118 16.8917 84.9118 17.0082C85.1142 16.9305 85.2761 16.9564 85.3975 17.0858L85.5189 17.0082V16.7753C85.5189 16.7753 85.5797 16.6588 85.5797 16.62C85.5797 16.5812 85.5797 16.4647 85.3975 16.5424L85.1547 16.3871V16.3095C85.1547 16.3095 85.1547 16.2706 85.1547 16.2318C85.2154 16.1542 85.3368 16.2318 85.3975 16.2318C85.5797 16.2318 85.6404 16.193 85.6404 16.0766H85.4582C85.4582 16.0766 85.5797 16.1154 85.6404 16.0766C85.6404 16.0766 85.6404 16.0766 85.6404 16.0377V15.9601C85.6404 15.9601 85.6404 15.9213 85.6404 15.8825C85.8832 15.6496 85.6404 15.3778 85.7618 15.1061C85.7618 15.1061 85.7011 15.0673 85.6404 15.0285L85.7618 15.1061V14.3686C85.7618 14.3686 85.7618 14.3298 85.7618 14.291C85.7618 14.2133 85.7011 14.2133 85.6404 14.291V14.5239C85.6404 14.5239 85.4582 14.3686 85.2761 14.3686L85.3975 14.2133C85.3975 14.2133 85.5797 14.1357 85.6404 14.0581C85.6404 14.0581 85.7618 13.9804 85.7618 13.9028V13.8251C85.9439 13.5922 85.7618 13.3593 85.7618 13.1264C85.8832 13.0488 85.8832 12.9712 85.7618 12.8935C85.7618 12.6994 85.8832 12.5054 85.7618 12.3113C86.0046 12.1948 85.7618 12.0395 85.7618 11.9231V11.302C85.7618 11.302 85.8225 10.9915 85.6404 10.8362V10.254C85.6404 10.254 85.6404 10.1763 85.5189 10.1763C85.5189 9.67169 85.4582 9.20588 85.2154 8.74008C85.2154 8.74008 85.2154 8.50717 85.1547 8.42954C85.1547 8.42954 85.1547 8.39072 85.1547 8.3519C85.094 8.3519 85.1547 8.42954 85.1547 8.46835C85.1547 8.46835 85.1547 8.39072 85.1547 8.3519C85.1547 8.23545 85.1547 8.119 85.094 8.04136C84.9725 7.53674 84.9118 7.03211 84.6083 6.5663C84.5476 6.37222 84.5476 6.17813 84.3654 5.98404C84.244 5.98404 84.3654 5.94523 84.3654 5.90641C84.3654 5.90641 84.3654 5.82877 84.3047 5.82877V5.67351C84.3047 5.67351 84.1833 5.75114 84.1833 5.78996C84.1833 5.78996 84.1833 5.71232 84.244 5.67351V5.59587C84.244 5.47942 84.244 5.40178 84.1226 5.32415C84.1226 5.28533 84.0012 5.2077 84.1226 5.16888L84.0012 4.93598C84.0012 4.93598 83.819 4.62544 83.6976 4.43135C83.6976 4.27608 83.6369 4.15963 83.4548 4.08199C83.4548 4.00436 83.4548 3.88791 83.3333 3.84909L82.7869 3.11156C82.7869 3.11156 82.6048 3.07274 82.4834 3.11156C82.4834 3.11156 82.6655 3.1892 82.7869 3.11156C82.7869 3.07274 82.7869 3.03393 82.6655 3.03393C82.6655 3.03393 82.6655 2.99511 82.6655 2.95629C82.6048 2.87866 82.4834 2.80102 82.362 2.87866H82.1191C82.1191 2.87866 82.0584 2.80102 81.9977 2.7622C81.937 2.68457 81.8763 2.5293 81.5727 2.64575C81.5727 2.64575 81.4513 2.64575 81.3906 2.64575C81.3906 2.64575 80.9049 2.64575 80.662 2.7622C80.4192 2.83984 80.1764 2.87866 79.9335 2.68457C79.8121 2.56812 79.4478 2.5293 79.3264 2.56812C78.9014 2.68457 78.5979 2.56812 78.2943 2.45167C78.1122 2.56812 77.93 2.49048 77.6872 2.5293C77.3229 2.41285 77.2622 2.41285 77.0801 2.60694C76.8979 2.60694 76.7765 2.7622 76.5944 2.7622C76.2301 2.7622 76.2301 2.7622 76.4123 2.99511L76.5337 3.15038C76.5337 3.15038 76.473 3.26683 76.5337 3.30565L76.7158 3.46092C76.7158 3.46092 76.7158 3.73264 76.8979 3.84909V4.00436C76.8979 4.00436 77.0194 4.35372 77.0194 4.5478C77.0194 4.5478 76.9587 4.58662 76.8979 4.62544C76.8372 4.70307 77.0194 4.97479 76.5944 4.81952C76.473 4.81952 76.4123 4.81952 76.3515 4.89716C76.1087 5.05243 75.9266 5.09125 75.623 5.01361C75.5016 5.01361 75.3802 5.01361 75.2588 5.01361L75.1373 4.93598C75.1373 4.93598 75.1373 4.97479 75.1373 5.01361C75.0766 5.05243 75.0159 5.13006 75.0159 5.2077C75.0159 5.2077 75.1373 5.09125 75.1373 5.01361C75.1373 5.01361 75.1373 4.97479 75.1373 4.93598C75.0159 4.81952 74.7731 4.78071 74.7731 4.62544C74.6516 4.5478 74.6516 4.47017 74.5302 4.39253L74.2874 4.3149C74.2874 4.3149 74.0445 4.19845 73.9231 4.15963H73.6803V4.3149C73.6803 4.3149 73.741 4.39253 73.8017 4.39253V4.3149H73.6803C73.6803 4.3149 73.6803 4.23726 73.6803 4.15963C73.1339 4.15963 72.5874 4.04318 72.1018 4.23726H70.4018C70.2804 4.04318 70.0983 4.04318 69.8554 4.19845C69.6733 4.3149 69.4912 4.27608 69.309 4.23726C69.0662 4.19845 68.8841 4.23726 68.7019 4.3149V4.23726C68.7019 4.23726 68.277 4.12081 68.0948 4.08199C67.9734 3.92673 67.7913 3.84909 67.4877 3.84909C67.3056 3.84909 67.1842 3.84909 67.002 3.84909C66.8806 3.655 66.6377 3.73264 66.3949 3.77146H65.9092C65.6057 3.57737 65.3021 3.73264 64.9378 3.69382L64.8164 3.61619C64.8164 3.61619 64.3914 3.49973 64.3307 3.38328C64.2093 3.1892 63.9665 3.1892 63.7236 3.22801C63.6022 3.22801 63.5415 3.22801 63.4808 3.30565C63.1165 3.30565 62.8129 3.4221 62.4487 3.30565C62.388 3.30565 62.2665 3.34447 62.2058 3.38328H62.0844C62.0844 3.38328 62.0237 3.46092 62.0237 3.53855C62.0237 3.61619 62.0237 3.69382 62.0237 3.77146C62.0237 3.77146 62.0237 3.77146 62.0237 3.81027C61.9023 3.88791 61.963 3.96554 61.963 4.04318V4.43135C61.963 4.43135 61.963 4.47017 61.963 4.50899C61.963 4.50899 61.8416 4.70307 61.963 4.70307C62.0844 4.70307 62.0237 4.62544 62.0237 4.58662C62.0237 4.58662 62.0237 4.5478 62.0237 4.50899C62.0237 4.50899 62.0237 4.50899 62.0844 4.50899V4.97479L61.9023 5.05243C61.9023 5.05243 61.8416 5.05243 61.8416 5.13006L61.7201 5.2077C61.7201 5.2077 61.0523 5.05243 60.8702 5.36297C60.688 5.40178 60.4452 5.36297 60.3238 5.4406H60.0809C60.0809 5.4406 59.9595 5.28533 59.8381 5.32415C59.7167 5.32415 59.7774 5.4406 59.7774 5.47942C59.7774 5.47942 59.7774 5.55705 59.7774 5.59587C59.7774 5.59587 59.7774 5.63469 59.7774 5.67351C59.7774 5.67351 59.8988 5.71232 59.8988 5.75114C59.8988 5.75114 59.7774 5.78996 59.7167 5.82877H59.4738C59.4738 5.82877 59.4131 5.55705 59.231 5.4406C59.231 5.05243 59.0488 4.66425 58.7453 4.27608C58.7453 3.96554 58.5024 3.69382 58.381 3.4221C58.2596 3.26683 58.3203 3.03393 58.0168 2.91747C58.0168 2.91747 57.7739 2.7622 57.5918 2.7622C57.0454 2.72339 56.499 2.64575 56.0133 2.83984C55.7704 2.72339 55.5883 2.83984 55.4062 2.91747C55.224 2.91747 55.1026 2.7622 54.9205 2.91747C54.5562 2.99511 54.1312 3.07274 53.7063 3.07274C53.4634 2.99511 53.1599 2.91747 52.8563 2.99511C52.8563 2.99511 52.7956 3.07274 52.7349 3.07274C52.7349 3.15038 52.5527 3.11156 52.492 3.15038C52.492 3.15038 52.0671 3.30565 51.8242 3.22801C51.7635 3.1892 51.7028 3.11156 51.6421 3.22801C51.6421 3.30565 51.5207 3.38328 51.4599 3.46092C51.3992 3.46092 51.3385 3.49973 51.2778 3.53855C51.2778 3.53855 51.4599 3.53855 51.4599 3.46092C51.3385 3.4221 51.1564 3.38328 51.1564 3.22801V3.15038H51.0957L50.7314 2.7622C50.7314 2.7622 50.7314 2.64575 50.61 2.60694C50.3671 2.21876 49.9422 1.90822 49.5172 1.55887C49.335 1.4036 49.0922 1.4036 48.8494 1.4036C48.6672 1.4036 48.6672 1.55887 48.6672 1.6365C48.2422 1.55887 48.6672 1.36478 48.5458 1.20951C48.4244 1.20951 48.303 1.20951 48.2422 1.32596C47.9994 1.32596 47.8173 1.32596 47.6351 1.48123C47.2102 1.52005 46.7245 1.48123 46.3602 1.6365L46.1174 1.75295C46.1174 1.75295 45.9352 1.71414 45.8745 1.71414C45.7531 1.59768 45.5709 1.59768 45.3281 1.6365C45.2067 1.6365 45.0853 1.71414 45.0245 1.6365C44.721 1.52005 44.4781 1.6365 44.296 1.75295C44.1139 1.86941 43.9317 1.94704 43.6889 2.06349C43.6889 2.06349 43.5068 1.98586 43.4461 1.90822C43.3246 1.71414 43.1425 1.59768 42.8389 1.52005C42.8389 1.44242 42.7782 1.32596 42.6568 1.28715C42.6568 1.17069 42.5354 1.13188 42.414 1.05424C42.414 0.860155 42.0497 0.821338 41.9283 0.666068C41.9283 0.666068 41.9283 0.627251 41.9283 0.588434C41.8676 0.627251 41.9283 0.666068 41.9283 0.704886C41.9283 0.704886 41.9283 0.627251 41.9283 0.588434L41.8069 0.510799C41.564 0.329651 41.2807 0.303773 40.9569 0.433164C40.9569 0.433164 40.8962 0.471982 40.8355 0.510799C40.8355 0.510799 40.7748 0.510799 40.7141 0.510799C40.5319 0.510799 40.4105 0.510799 40.2891 0.627251C40.1677 0.588434 40.0462 0.588434 39.9855 0.627251C39.8034 0.78252 39.5605 0.78252 39.3177 0.821338C38.6499 0.93779 38.1035 1.17069 37.4964 1.32596C37.4964 1.32596 37.4964 1.36478 37.4964 1.4036V1.32596C37.4964 1.32596 37.1321 1.4036 37.0107 1.48123C36.5857 1.67532 36.2821 1.86941 36.3428 2.25758V2.80102C36.3428 3.07274 36.4643 3.34447 36.4643 3.655C36.3428 3.655 36.4643 3.81027 36.2214 3.81027C36.1 3.73264 36.3428 3.57737 36.1 3.49973C35.7357 3.38328 35.8572 3.53855 35.8572 3.655C35.8572 3.73264 35.8572 3.81027 35.9786 3.88791C36.0393 3.88791 35.9786 3.96554 35.9786 4.00436C35.9786 4.00436 35.8572 4.15963 35.8572 4.23726H35.675V3.84909L35.4929 3.61619C35.4929 3.61619 35.4929 3.46092 35.4929 3.4221C35.4929 3.30565 35.3715 3.34447 35.25 3.4221H35.0072C34.8858 3.15038 35.1286 2.87866 34.9465 2.56812C34.7036 2.80102 34.8251 3.07274 34.7643 3.30565L34.5822 3.655C34.5822 3.655 34.5822 3.34447 34.4608 3.1892C34.2787 3.26683 34.3394 3.38328 34.2787 3.46092H34.1572C34.1572 3.46092 33.9751 3.38328 33.9751 3.46092C33.793 3.69382 33.4287 3.88791 33.368 4.15963L33.0037 4.5478C33.0037 4.5478 32.6395 4.43135 32.4573 4.5478C32.4573 4.5478 32.2752 4.5478 32.1538 4.5478V4.43135C32.1538 4.43135 31.8502 4.43135 31.7895 4.35372C31.5467 4.19845 31.1824 4.35372 30.9395 4.23726H31.6074C31.9109 4.23726 31.9109 4.12081 31.7895 3.96554H32.0931C32.0931 3.92673 32.0931 3.88791 31.9716 3.88791C31.9716 3.88791 31.8502 3.88791 31.7895 3.92672H31.6681C31.6681 3.69382 31.4252 3.81027 31.3038 3.84909C30.8788 3.77146 30.4538 3.77146 29.9682 3.84909C29.9074 3.84909 29.8467 3.84909 29.8467 3.84909C29.8467 3.84909 29.8467 3.84909 29.786 3.84909C29.786 3.81027 29.7253 3.77146 29.6039 3.77146C29.1182 3.77146 28.6325 3.77146 28.1468 3.84909C27.8433 3.84909 27.5397 3.81027 27.2969 3.92672H28.0254C28.0254 3.92672 27.5397 3.88791 27.2969 3.92672H26.9933C26.9933 3.92672 26.5683 3.92673 26.3862 4.00436C26.0219 3.96554 25.6577 4.00436 25.2934 4.00436C25.2934 3.88791 25.4755 3.92672 25.5362 3.84909C25.7184 3.84909 25.9612 3.84909 26.1434 3.77146C26.4469 3.77146 26.7505 3.69382 27.1147 3.655C27.1147 3.655 27.6611 3.655 27.9647 3.57737C28.2682 3.57737 28.5718 3.57737 28.8146 3.53855C28.9361 3.53855 28.9968 3.53855 29.1182 3.53855C29.1789 3.53855 29.361 3.53855 29.3003 3.46092C29.3003 3.46092 29.1789 3.4221 29.1789 3.38328C29.1789 3.38328 29.4218 3.38328 29.4825 3.4221C29.786 3.46092 30.0896 3.53855 30.3324 3.38328C30.3324 3.38328 30.3324 3.34447 30.3324 3.30565C30.5146 3.30565 30.6967 3.30565 30.8181 3.30565C30.9395 3.30565 31.0003 3.30565 31.0003 3.22801C31.1824 3.22801 31.4859 3.30565 31.5467 3.07274C31.2431 3.07274 30.9395 3.07274 30.636 3.07274C30.636 2.95629 30.5753 2.91747 30.3931 2.91747V2.83984H30.3324C30.3324 2.83984 30.3324 2.83984 30.3931 2.83984L30.5146 2.7622L31.0003 2.60694C31.0003 2.60694 31.061 2.60694 31.1217 2.60694C31.2431 2.56812 31.1217 2.5293 31.1217 2.5293C30.8788 2.5293 30.636 2.5293 30.3931 2.5293C29.8467 2.5293 29.361 2.49048 28.8146 2.60694H28.4504C28.4504 2.60694 28.0861 2.60694 27.8433 2.64575H27.7218C27.4183 2.64575 27.1754 2.64575 26.8719 2.64575C26.6898 2.64575 26.5076 2.64575 26.3862 2.68457C25.9612 2.64575 25.5362 2.80102 25.0506 2.7622C24.6863 2.72339 24.322 2.7622 24.0185 2.83984C23.7149 2.83984 23.3506 2.83984 23.0471 2.91747H22.9257C22.9257 2.91747 22.8649 2.95629 22.8042 2.99511C22.8042 2.99511 22.6221 3.11156 22.5614 2.99511C22.3185 2.99511 22.0757 3.07274 21.8329 3.07274L21.9543 2.99511C21.9543 2.99511 22.44 2.91747 22.6221 2.80102C22.3793 2.72339 22.1971 2.87866 21.9543 2.87866C21.59 2.99511 21.165 2.95629 20.8008 3.07274C20.6186 3.11156 20.3758 3.07274 20.3151 3.22801H20.1937C20.1937 3.22801 19.7687 3.22801 19.5865 3.30565C19.4044 3.30565 19.2223 3.30565 19.1008 3.38328C18.6152 3.46092 18.1902 3.57737 17.7652 3.69382C17.5831 3.69382 17.5224 3.77146 17.5224 3.84909C17.2188 3.84909 16.9152 3.84909 16.6117 3.96554C16.4296 4.04318 16.2474 4.15963 16.0046 4.12081C16.2474 3.92673 16.551 3.77146 16.6724 3.53855C16.7331 3.53855 16.7938 3.53855 16.7938 3.46092C17.0367 3.34447 17.2188 3.22801 17.4009 3.07274C17.5831 2.99511 17.7652 2.87866 17.8866 2.72339C17.8866 2.72339 18.008 2.72339 17.9473 2.64575C17.9473 2.64575 17.8866 2.64575 17.8259 2.64575C17.6438 2.5293 17.4616 2.56812 17.2188 2.56812C17.1581 2.5293 17.0367 2.49048 16.976 2.56812C16.8545 2.64575 16.6117 2.64575 16.4903 2.72339C16.4903 2.72339 15.9439 2.56812 15.7617 2.80102C15.2153 2.72339 14.6689 2.68457 14.1225 2.7622C13.9404 2.83984 13.7583 2.7622 13.5154 2.7622C13.4547 2.7622 13.3333 2.7622 13.2726 2.7622C12.4833 2.83984 11.6334 2.91747 11.0263 3.26683C10.4191 3.26683 9.87274 3.30565 9.32634 3.49973C9.20492 3.53855 9.14421 3.49973 9.02278 3.49973C8.65851 3.34447 8.65851 3.34447 8.41567 3.61619C8.23354 3.61619 8.11211 3.61619 7.92998 3.61619C7.62642 3.61619 7.32287 3.69382 7.20144 3.88791C7.20144 3.88791 6.65504 4.12081 6.53362 4.27608C6.29078 4.50899 5.8658 4.66425 5.68366 4.97479C5.50153 4.97479 5.44082 5.09125 5.44082 5.2077C5.3194 5.24651 5.25869 5.36297 5.19797 5.4406C5.19797 5.4406 5.13726 5.47942 5.07655 5.51824C4.773 5.71232 4.65157 5.98404 4.46944 6.21695C4.46944 6.3334 4.34802 6.44985 4.46944 6.60512L4.34802 6.83803H4.22659C4.22659 6.83803 4.04446 6.76039 3.92304 6.83803C3.86233 6.91566 3.7409 6.95448 3.7409 7.03211C3.7409 7.03211 3.86233 7.03211 3.86233 7.07093C3.86233 7.30383 3.49806 7.4591 3.49806 7.69201H3.37664V7.92491C3.37664 7.92491 3.07308 8.19663 3.01237 8.39072L2.76952 8.62362C2.76952 8.62362 2.58739 8.85653 2.52668 9.0118L2.40526 9.08943C2.40526 9.08943 2.28383 9.39997 2.16241 9.55524L2.04099 9.63287V9.78814C2.04099 9.78814 1.98028 9.86578 1.91957 9.86578V9.94341C1.91957 9.94341 1.67672 10.3316 1.5553 10.5645C1.43388 10.6809 1.43388 10.7974 1.43388 10.9527C1.31245 10.9527 1.31245 11.0303 1.31245 11.1079H1.19103V11.3408C1.19103 11.3408 1.19103 11.5737 0.948187 11.6514C0.948187 11.5737 1.0089 11.4573 0.887476 11.4185C0.766054 11.4185 0.766054 11.4961 0.705342 11.5737C0.705342 11.6126 0.705342 11.6902 0.705342 11.729C0.705342 11.729 0.705342 11.6902 0.766054 11.6514H0.887476C0.887476 11.6514 0.826765 11.9231 1.0089 12.0395C1.0089 12.0395 1.06961 12.156 1.0089 12.1948C1.0089 12.1948 0.948187 12.1948 0.887476 12.1948H0.826765C0.826765 12.3113 0.826765 12.4665 0.705342 12.583C0.58392 12.6994 0.58392 12.8547 0.462497 12.9712V13.0488L0.341075 13.437C0.341075 13.437 0.219652 13.7087 0.341075 13.8251C0.341075 13.7087 0.341075 13.5922 0.401786 13.5146L0.523209 12.9323ZM40.6533 0.821338C40.6533 0.821338 40.6533 0.743703 40.6533 0.704886C40.6533 0.704886 40.5926 0.78252 40.5926 0.821338H40.6533ZM36.6464 24.2282C36.6464 24.2282 36.6464 24.2282 36.6464 24.267C36.6464 24.267 36.6464 24.267 36.6464 24.2282ZM11.2084 22.3261H11.1477V22.2485C11.1477 22.2485 11.2084 22.2873 11.2084 22.3261ZM14.7904 3.11156C14.7904 3.11156 14.7904 2.91747 14.9118 2.95629C14.9118 2.95629 14.8511 3.07274 14.8511 3.11156H14.7904ZM40.8962 23.0637C40.8962 23.0637 40.8962 22.986 40.8355 22.9472C40.8355 22.9472 40.8355 23.0249 40.8962 23.0637ZM37.3142 2.02468C37.3142 2.02468 37.4356 2.06349 37.4964 2.06349C37.4964 2.06349 37.3749 2.06349 37.3142 2.02468ZM77.2015 4.74189C77.2015 4.74189 77.2622 4.74189 77.3229 4.78071C77.3229 4.78071 77.3229 4.78071 77.2015 4.78071V4.74189ZM45.9959 23.6848C45.9959 23.6848 45.9959 23.6848 45.9352 23.7236C45.9352 23.7236 45.9352 23.6848 45.9959 23.6848ZM28.0861 4.50899C28.0861 4.50899 28.1468 4.50899 28.2075 4.50899C28.2075 4.50899 28.1468 4.50899 28.0861 4.50899ZM37.0714 4.00436V4.19845C37.0714 4.19845 37.0714 4.08199 37.0714 4.00436ZM39.7427 2.72339C39.7427 2.72339 39.7427 2.7622 39.7427 2.80102C39.7427 2.80102 39.7427 2.7622 39.7427 2.72339ZM56.074 23.3354C56.074 23.3354 56.074 23.3354 56.1347 23.2966H56.074V23.3354ZM31.6074 22.1321C31.6074 22.1321 31.6074 22.0544 31.6074 22.0156C31.6074 22.0156 31.6074 22.0932 31.6074 22.1321ZM26.8719 21.3557C26.8719 21.3557 26.8719 21.3557 26.8112 21.3169H26.8719V21.3557ZM79.63 20.3465C79.63 20.3465 79.6907 20.3465 79.7514 20.3465H79.63ZM28.6932 21.084C28.6932 21.084 28.5718 21.084 28.5111 21.084C28.5111 21.0064 28.5111 20.9675 28.6325 20.9287H28.6932C28.6932 20.9287 28.6932 21.0064 28.6932 21.1228V21.084ZM77.2622 6.83803C77.2622 6.83803 77.2622 6.83803 77.2622 6.87684C77.2622 6.87684 77.2622 6.87684 77.2622 6.83803ZM57.7739 10.254H57.6525C57.6525 10.254 57.7132 10.254 57.7739 10.254ZM35.0072 19.2208C35.0072 19.2208 34.8858 19.2208 34.8251 19.1819C34.8251 19.1819 34.9465 19.1819 34.9465 19.2208H35.0072ZM29.6646 18.5609C29.6646 18.5609 29.6646 18.5609 29.5432 18.5609C29.5432 18.5609 29.6039 18.5609 29.6646 18.5609ZM63.9057 15.7272C63.9057 15.7272 63.9057 15.8825 63.7236 15.8436C63.7236 15.8436 63.845 15.766 63.9057 15.7272ZM63.6022 16.2706C63.6022 16.2706 63.6629 16.193 63.6022 16.1154C63.6022 16.1154 63.6629 16.1154 63.7236 16.1542L63.6022 16.2706ZM62.3273 15.6496C62.3273 15.6496 62.3273 15.6884 62.2665 15.6884H62.3273V15.6496ZM34.6429 18.7161C34.6429 18.7161 34.6429 18.5609 34.6429 18.4832C34.6429 18.5609 34.6429 18.6385 34.6429 18.7161ZM50.8528 7.69201V7.88609C50.8528 7.88609 50.9135 7.76964 50.8528 7.69201ZM26.9933 18.2503C26.9933 18.2503 26.9933 18.2503 26.9326 18.2503H26.9933ZM53.0384 13.437C53.0384 13.437 52.917 13.437 52.8563 13.5146L53.0384 13.437ZM42.1104 18.0174C42.1104 18.0174 42.1104 18.0174 42.1104 17.9786V18.0174ZM16.0653 14.7956C16.0653 14.7956 16.0653 14.7179 16.0653 14.6791C16.0653 14.6791 16.0653 14.7179 16.0653 14.7568H16.0046L16.0653 14.7956ZM38.7713 7.80846C38.7713 7.80846 38.7713 7.80846 38.7713 7.84728V7.80846ZM39.3177 7.53674C39.3177 7.53674 39.3177 7.61437 39.257 7.61437C39.257 7.61437 39.3177 7.61437 39.3177 7.53674ZM18.9187 16.1542C18.9187 16.1542 18.9187 15.9601 18.9794 15.8436C18.9794 15.9601 18.858 16.0377 18.9794 16.1154L18.9187 16.1542ZM36.7678 15.3002V15.3778C36.7678 15.3778 36.7678 15.3002 36.8285 15.2614C36.8285 15.2614 36.8285 15.339 36.8285 15.3778C36.8285 15.3778 36.8285 15.339 36.8285 15.3002H36.7678ZM27.3576 12.6994C27.3576 12.6994 27.479 12.6994 27.479 12.7771C27.479 12.7771 27.4183 12.7383 27.3576 12.6994ZM26.3862 11.729C26.3862 11.729 26.3862 11.7678 26.3862 11.8066C26.3862 11.8066 26.3862 11.8066 26.3862 11.7678H26.4469L26.3862 11.729ZM30.7574 12.9323H30.636V12.8547C30.636 12.8547 30.636 12.8935 30.6967 12.9323H30.7574ZM30.8788 12.3501C30.8788 12.3501 30.8788 12.3501 30.8181 12.3113C30.8181 12.3113 30.8181 12.3113 30.8181 12.3501H30.8788ZM39.9248 14.0581C39.9248 14.0581 39.9248 14.1357 39.8641 14.1745C39.8641 14.1357 39.9248 14.0969 39.9248 14.0581ZM43.8103 8.39072C43.8103 8.39072 43.8103 8.39072 43.8103 8.31309V8.39072ZM42.7782 12.2725H42.8389C42.8389 12.2725 42.8389 12.2725 42.7782 12.2725ZM40.8962 10.7586C40.8962 10.7586 41.0176 10.7974 41.0176 10.8362C41.0176 10.8362 40.9569 10.7586 40.8962 10.7586ZM43.8103 7.84728C43.8103 7.84728 43.8103 7.84728 43.871 7.84728H43.8103ZM36.2214 14.485C36.2214 14.485 36.1 14.6015 36.0393 14.6403C36.0393 14.6403 36.1607 14.5239 36.2214 14.485ZM37.8606 14.0581C37.8606 14.0581 37.7999 14.1745 37.7392 14.2133C37.7392 14.1745 37.7999 14.0969 37.8606 14.0581ZM39.3784 7.92491H39.5605C39.5605 7.92491 39.4391 7.92491 39.3784 7.92491ZM28.5111 11.3797C28.5111 11.3797 28.3897 11.4961 28.2682 11.5737C28.329 11.5349 28.4504 11.4573 28.5111 11.3797ZM35.0072 15.4943C35.0072 15.4943 35.0072 15.5719 35.0072 15.6496C35.0072 15.6496 34.9465 15.6496 34.8858 15.6107C34.8858 15.6107 35.0072 15.5719 35.0679 15.5331L35.0072 15.4943ZM38.407 17.8233C38.407 17.8233 38.407 17.9398 38.3463 17.9786L38.2249 18.0562C38.3463 17.9786 38.407 17.901 38.407 17.7845V17.8233ZM48.7279 12.5442C48.7279 12.5442 48.6672 12.6606 48.6672 12.6994C48.6672 12.6606 48.6672 12.583 48.7279 12.5442ZM44.9031 13.5922C44.9031 13.5922 44.9031 13.5922 44.8424 13.5922C44.8424 13.5922 44.8424 13.5922 44.9031 13.5922ZM22.44 15.6496C22.44 15.6496 22.44 15.6496 22.44 15.6884V15.6107V15.6496ZM39.0141 17.7457C39.0141 17.7457 39.0141 17.7457 39.0748 17.7069C39.0748 17.7845 38.9534 17.8233 38.8927 17.901C38.8927 17.8233 38.8927 17.7845 38.9534 17.7457H39.0141ZM43.5675 6.5663C43.5675 6.5663 43.5068 6.52749 43.5675 6.48867C43.5675 6.48867 43.5675 6.52749 43.5675 6.5663ZM30.1503 10.6809C30.1503 10.6809 29.9682 10.7586 29.9074 10.7974H29.786C29.786 10.7974 30.0896 10.7586 30.211 10.6809H30.1503ZM29.1182 10.9915C29.1182 10.9915 29.0575 10.9915 28.9968 10.9915C29.0575 10.9915 29.1182 10.9527 29.1789 10.9527L29.1182 10.9915ZM23.9577 9.43879C23.9577 9.43879 23.9577 9.43879 23.9577 9.4776V9.43879ZM21.6507 10.3316C21.6507 10.3316 21.6507 10.3316 21.7114 10.3316C21.7114 10.3316 21.7114 10.3316 21.6507 10.3316ZM23.3506 15.4943V15.5719C23.3506 15.5719 23.3506 15.5331 23.3506 15.4943ZM54.7991 15.3778C54.7991 15.3778 54.7991 15.4167 54.7383 15.3778C54.7383 15.3778 54.7383 15.3778 54.7991 15.3778ZM53.767 15.0673C53.767 15.0673 53.767 14.9897 53.767 14.9509V15.0673ZM49.2743 8.77889C49.2743 8.77889 49.2743 8.85653 49.335 8.85653C49.335 8.85653 49.2743 8.81771 49.2743 8.77889ZM47.5137 11.4573C47.5137 11.4573 47.3923 11.5737 47.2709 11.5737C47.3923 11.5737 47.5137 11.5737 47.5137 11.4573ZM36.0393 8.70126C36.0393 8.70126 36.0393 8.74008 35.9179 8.74008C35.9179 8.74008 35.9786 8.70126 36.0393 8.66244V8.70126ZM14.8511 14.4462C14.8511 14.4462 14.8511 14.485 14.8511 14.5239V14.4462ZM56.2561 17.9398C56.2561 17.9398 55.8312 17.8233 55.7097 17.7845C55.8919 17.7457 55.9526 17.7457 56.1954 17.8622C56.1954 17.8622 56.1954 17.901 56.2561 17.9398ZM48.4244 6.1005V5.98404C48.4244 5.98404 48.4244 6.06168 48.4244 6.1005ZM38.2249 8.77889C38.2249 8.77889 38.1642 8.77889 38.1035 8.77889H38.2249ZM17.8866 11.3797C17.8866 11.3797 17.8866 11.3797 17.8866 11.302C17.8866 11.302 17.8866 11.3408 17.8866 11.3797ZM37.4964 19.3372C37.4964 19.3372 37.4964 19.376 37.4964 19.4148V19.3372ZM53.1599 10.7586C53.1599 10.7586 53.1599 10.7974 53.1599 10.8362H53.0991C53.0991 10.8362 53.0991 10.7586 53.2206 10.7586H53.1599ZM44.4174 6.02286C44.4174 6.02286 44.5389 6.02286 44.5996 6.02286H44.4174ZM10.9048 9.71051C10.9048 9.71051 10.9048 9.71051 10.9048 9.67169C10.9048 9.67169 10.9048 9.67169 10.9048 9.71051ZM14.2439 15.2226C14.2439 15.2226 14.3654 15.3002 14.3654 15.339C14.2439 15.339 14.1832 15.4167 14.1225 15.4555C14.1225 15.3778 14.2439 15.339 14.2439 15.2614V15.2226ZM39.8641 20.23C39.8641 20.23 39.8641 20.2688 39.8641 20.3076C39.8641 20.3076 39.8641 20.3076 39.8641 20.23ZM46.0566 19.2984C46.0566 19.2984 45.9959 19.376 45.9352 19.4148C45.9352 19.4148 46.0566 19.3372 46.0566 19.2984ZM57.6525 16.4647C57.6525 16.4647 57.956 16.2706 58.1382 16.193C58.0775 16.2706 57.956 16.3095 57.956 16.3871C57.956 16.4259 57.8346 16.5035 57.7132 16.4647H57.6525ZM52.492 10.6421C52.492 10.6421 52.492 10.6809 52.492 10.7198V10.6421ZM15.276 10.2151V10.1375C15.276 10.1375 15.276 10.1375 15.276 10.2151ZM7.80856 10.2928C7.80856 10.2928 7.62642 10.3704 7.56571 10.3704C7.68714 10.3704 7.74785 10.3316 7.86927 10.254L7.80856 10.2928ZM6.10864 10.6033C6.10864 10.6033 6.04793 10.6033 5.98722 10.6421H6.10864V10.6033ZM14.5475 17.9786C14.5475 17.9786 14.5475 18.0562 14.4868 18.0562C14.4868 18.0562 14.4868 18.0174 14.5475 17.9786ZM24.1399 19.8418C24.1399 19.8418 24.0185 19.9195 23.9577 19.9195C24.0792 19.9195 24.1399 19.9195 24.1399 19.8418ZM32.6395 18.6773C32.6395 18.6773 32.6395 18.7549 32.6395 18.7938C32.6395 18.7549 32.6395 18.7161 32.6395 18.6773ZM37.5571 19.376C37.5571 19.376 37.5571 19.376 37.4964 19.376C37.4964 19.376 37.4964 19.376 37.5571 19.376ZM45.2674 20.0747C45.2674 20.0747 44.9031 20.23 44.7817 20.3465C44.9031 20.2688 45.0853 20.1524 45.2674 20.0747ZM66.577 15.766C66.577 15.766 66.3949 15.766 66.2735 15.766C66.2735 15.766 66.4556 15.8436 66.577 15.766ZM67.6091 14.912C67.6091 14.912 67.1842 15.1449 66.9413 15.3002C67.1234 15.1838 67.3056 15.0673 67.4877 14.912H67.6091ZM44.4174 4.97479C44.4174 4.97479 44.3567 5.05243 44.4174 5.13006V4.97479ZM15.2153 9.71051C15.2153 9.71051 15.276 9.59406 15.3975 9.63287C15.3368 9.63287 15.276 9.71051 15.2153 9.71051ZM7.62642 7.53674C7.62642 7.53674 7.62642 7.53674 7.62642 7.49792C7.62642 7.49792 7.62642 7.49792 7.62642 7.53674ZM5.38011 9.74933C5.38011 9.74933 5.50153 9.51642 5.56224 9.39997C5.56224 9.39997 5.44082 9.63287 5.38011 9.74933ZM20.6793 21.5886C20.6793 21.5886 20.6186 21.6274 20.5579 21.6663C20.5579 21.6663 20.6186 21.6663 20.6793 21.5886ZM70.7054 20.3853C70.7054 20.3853 70.7054 20.4241 70.6447 20.4629C70.6447 20.4629 70.6447 20.3853 70.6447 20.3465V20.3853H70.7054ZM58.5632 14.485C58.5632 14.485 59.0488 14.2133 59.1703 14.0192C59.1703 14.0192 58.6846 14.3298 58.5024 14.485H58.5632ZM49.8207 5.51824C49.8207 5.51824 49.9422 5.51824 49.9422 5.4406C49.9422 5.4406 49.9422 5.47942 49.9422 5.51824H49.8207ZM43.3246 4.78071C43.3246 4.78071 43.0211 4.78071 42.8997 4.78071C43.0211 4.78071 43.0818 4.78071 43.2032 4.78071C43.2032 4.78071 43.2639 4.78071 43.3246 4.78071ZM40.7141 4.23726C40.7141 4.23726 40.7141 4.23726 40.7141 4.27608V4.23726ZM11.5119 8.62362C11.5119 8.62362 11.5727 8.54599 11.6334 8.50717C11.6334 8.50717 11.6334 8.58481 11.5727 8.62362H11.5119ZM5.07655 15.9989C5.07655 15.9989 5.07655 15.9989 5.07655 16.0377V15.9989ZM30.0896 19.9971C30.0896 19.9971 30.1503 19.9971 30.211 19.9583C30.211 19.9583 30.211 20.0359 30.211 20.0747C30.211 20.0747 30.211 20.0747 30.211 20.0359L30.0896 19.9971ZM71.0697 19.6866C71.0697 19.6866 71.0697 19.6866 71.0697 19.7254V19.6866ZM81.8763 11.1856C81.8763 11.1856 81.8763 11.302 81.9977 11.3408L81.8763 11.1856ZM82.7262 10.9915C82.7262 10.9915 82.7262 10.9915 82.8477 10.9915H82.7262ZM78.2943 12.1172C78.2943 12.1172 78.2943 12.0007 78.1729 11.9619C78.1729 12.0007 78.1729 12.0784 78.2943 12.1172ZM79.4478 11.3797C79.4478 11.3797 79.4478 11.3797 79.5085 11.4573C79.5085 11.4573 79.5085 11.4185 79.3871 11.3797H79.4478ZM79.7514 15.1838H79.8728C79.8728 15.1838 79.8728 15.1838 79.7514 15.1838ZM76.1087 9.2447C76.1087 9.2447 76.1087 9.32234 76.1087 9.36115V9.2447ZM58.381 9.32234H58.1989C58.1989 9.32234 58.3203 9.32234 58.381 9.32234ZM51.4599 8.74008V8.81771C51.4599 8.81771 51.4599 8.77889 51.4599 8.74008ZM24.9291 20.3853C24.9291 20.3853 24.9291 20.3465 24.9898 20.3465C24.9898 20.3465 24.9898 20.3465 24.9898 20.3853H24.9291ZM43.7496 21.1228H43.871C43.871 21.1228 43.8103 21.1228 43.7496 21.1228ZM67.427 17.901C67.427 17.901 67.3663 17.901 67.3056 17.901H67.427ZM69.9162 8.46835C69.9162 8.46835 69.9162 8.46835 69.9162 8.42954H69.9769V8.46835H69.9162ZM66.6985 7.76964C66.6985 7.76964 66.577 7.84728 66.577 7.88609C66.577 7.84728 66.577 7.80846 66.6985 7.76964ZM51.4599 6.91566C51.4599 6.91566 51.4599 6.83803 51.5814 6.83803C51.5814 6.83803 51.5207 6.87684 51.4599 6.91566ZM48.1815 3.15038C48.1815 3.15038 48.1815 3.15038 48.1815 3.11156V3.15038ZM37.3142 4.5478C37.3142 4.5478 37.3142 4.5478 37.2535 4.5478H37.3142ZM5.98722 8.74008H5.92651C5.92651 8.74008 5.92651 8.74008 5.98722 8.74008ZM8.84065 19.8807V19.9583C8.84065 19.9583 8.84065 19.9195 8.84065 19.8807ZM29.0575 20.5017C29.0575 20.5017 29.1182 20.5017 29.1789 20.5017H29.0575ZM67.0627 21.3557V21.2781C67.0627 21.2781 67.0627 21.3169 67.0627 21.3557ZM67.7913 19.8418C67.7913 19.8418 67.7913 19.803 67.9127 19.803C67.9127 19.803 67.9127 19.803 67.9127 19.8418C67.9127 19.8418 67.9127 19.8418 67.852 19.8418H67.7913ZM75.5623 16.62C75.5623 16.62 75.6837 16.6588 75.8051 16.6976C75.7444 16.6976 75.6837 16.62 75.5623 16.62ZM72.7696 6.72157C72.7696 6.72157 72.7696 6.72157 72.7696 6.76039C72.7696 6.76039 72.7696 6.76039 72.7696 6.72157ZM72.3446 6.17813C72.3446 6.17813 72.3446 6.21695 72.2839 6.21695H72.3446V6.17813ZM58.7453 8.19663C58.7453 8.19663 58.7453 8.15782 58.806 8.119V8.19663H58.7453ZM57.5311 4.78071C57.5311 4.78071 57.5918 4.78071 57.6525 4.78071C57.6525 4.78071 57.5918 4.78071 57.5311 4.78071ZM11.3905 6.17813C11.3905 6.17813 11.3905 6.17813 11.3905 6.21695C11.3905 6.21695 11.3905 6.21695 11.3905 6.17813ZM3.1945 11.6514C3.1945 11.6514 2.95166 11.5737 2.83024 11.5737H2.89095C2.89095 11.5737 3.13379 11.6514 3.25521 11.6514H3.1945ZM10.3584 21.3557C10.3584 21.3557 10.4799 21.3557 10.5406 21.3169C10.5406 21.3169 10.4191 21.3169 10.3584 21.3557ZM11.6334 21.5498C11.6334 21.5498 11.6334 21.6274 11.6334 21.6663C11.6334 21.6663 11.6334 21.6274 11.6334 21.5886V21.5498ZM48.5458 22.5202V22.4426C48.5458 22.4426 48.5458 22.4426 48.5458 22.5202ZM51.035 21.7827C51.035 21.7827 51.035 21.7827 50.9743 21.7827H51.035ZM66.7592 18.4056C66.7592 18.4056 66.8806 18.4056 66.9413 18.4056C67.002 18.4056 67.1234 18.4832 67.2449 18.4832C67.2449 18.4832 66.9413 18.3668 66.8199 18.3668L66.7592 18.4056ZM72.041 20.5405C72.041 20.5405 71.7982 20.5794 71.7375 20.6182C71.7982 20.5405 71.9803 20.6182 72.041 20.5405ZM82.4227 17.047C82.4227 17.047 82.4227 17.047 82.4227 17.0858V17.047ZM82.9084 17.6292C82.9084 17.6292 82.9084 17.474 82.9084 17.3963C82.9084 17.3963 82.9084 17.5516 82.9084 17.6292ZM85.0333 10.4869C85.0333 10.4869 85.2154 10.4092 85.3368 10.4092C85.3368 10.4092 85.094 10.4092 85.0333 10.4869ZM78.1122 3.77146H78.2336C78.2336 3.77146 78.1729 3.77146 78.1122 3.77146ZM66.2128 6.83803V7.2262C66.2128 7.2262 66.3949 6.99329 66.2128 6.83803ZM44.6603 4.12081C44.6603 4.12081 44.5389 4.12081 44.5389 4.04318C44.5389 4.04318 44.5389 4.04318 44.5389 4.00436C44.5389 4.04318 44.5996 4.08199 44.6603 4.12081ZM11.5727 6.06168C11.5727 6.06168 11.4512 6.06168 11.3905 6.06168H11.5727ZM4.40873 18.5997V18.4832C4.40873 18.4832 4.40873 18.5609 4.40873 18.5997ZM17.0367 22.559H16.8545C16.8545 22.559 16.976 22.559 17.0367 22.559ZM37.1321 23.2189H37.2535C37.2535 23.2189 37.1928 23.2189 37.1321 23.2189ZM44.4781 24.0341L44.296 24.1894C44.296 24.1894 44.4781 24.1117 44.4781 24.0341ZM69.0055 21.0064V21.0452C69.0055 21.0452 69.0055 21.0452 68.9448 21.0452L69.0055 21.0064ZM76.5944 16.9305C76.5944 16.9305 76.5944 16.9694 76.5944 17.0082V16.9305ZM85.4582 12.9712V12.6606C85.4582 12.6606 85.3975 12.8547 85.4582 12.9712ZM85.5797 10.1763L85.4582 10.0599C85.4582 10.0599 85.4582 10.1375 85.5797 10.1763ZM83.0298 4.23726C83.0298 4.23726 83.0298 4.08199 82.9691 4.00436C82.9691 4.00436 83.0298 4.15963 82.9691 4.23726H83.0298ZM80.5406 3.84909V3.77146C80.5406 3.77146 80.5406 3.81027 80.6013 3.84909C80.6013 3.84909 80.6013 3.84909 80.5406 3.84909ZM65.4842 6.5663C65.4842 6.5663 65.4842 6.60512 65.4842 6.64394V6.52749V6.5663ZM56.4383 4.66425C56.4383 4.66425 56.5597 4.74189 56.6204 4.78071C56.499 4.78071 56.4383 4.78071 56.4383 4.66425ZM47.6351 2.49048C47.6351 2.49048 47.6351 2.49048 47.6351 2.5293V2.49048ZM44.9031 2.91747C44.9031 2.91747 44.9638 3.03393 44.9031 3.07274C44.9031 2.99511 44.9031 2.95629 44.9031 2.91747ZM23.9577 4.04318C23.9577 4.04318 24.2613 4.04318 24.3827 3.96554C24.3827 3.96554 24.0792 3.96554 23.9577 4.04318ZM6.35149 19.6089H6.29078C6.29078 19.6089 6.29078 19.6089 6.35149 19.6089ZM15.0939 22.1321C15.0939 22.1321 15.0332 22.1321 14.9725 22.1321H15.0939ZM19.8294 23.413C19.8294 23.413 19.8294 23.3742 19.7687 23.3354C19.7687 23.3354 19.8901 23.3354 19.8901 23.3742L19.8294 23.413ZM22.1971 22.6367C22.2578 22.8696 22.5007 23.0249 22.7435 23.1801C22.7435 23.1801 22.44 22.792 22.1971 22.6367ZM84.8511 12.0784H84.9725C84.9725 12.0784 84.9118 12.0784 84.8511 12.0784ZM77.0194 5.05243C77.0194 5.05243 77.0801 4.81952 77.0194 4.74189C77.0194 4.74189 77.1408 4.97479 77.0194 5.05243ZM73.9231 4.27608C73.9231 4.27608 73.8624 4.27608 73.8017 4.3149H73.9231V4.27608ZM62.6915 3.81027C62.6915 3.81027 62.6308 3.81027 62.5701 3.81027H62.6915ZM44.8424 2.87866C44.8424 2.87866 44.8424 2.87866 44.8424 2.91747V2.87866ZM44.0532 3.4221C44.0532 3.4221 44.0532 3.38328 44.0532 3.34447C44.0532 3.34447 44.0532 3.38328 44.1139 3.4221H44.0532ZM38.407 1.48123C38.407 1.48123 38.407 1.4036 38.4677 1.4036C38.4677 1.4036 38.407 1.44242 38.3463 1.48123H38.407ZM25.9005 4.19845H25.8398C25.8398 4.19845 25.8398 4.19845 25.9005 4.19845ZM9.81203 3.22801C9.81203 3.22801 9.62989 3.30565 9.56918 3.38328C9.56918 3.38328 9.75132 3.30565 9.81203 3.22801ZM4.22659 21.1228C4.22659 21.1228 4.28731 21.0064 4.22659 20.9675C4.22659 20.9675 4.22659 21.084 4.22659 21.1228ZM18.6759 23.2966C18.6759 23.2966 18.6759 23.3354 18.6759 23.3742C18.6759 23.3742 18.6759 23.3742 18.6759 23.3354V23.2966ZM23.8363 24.8881L24.0185 25.0045C24.0185 25.0045 24.0185 24.9269 23.8363 24.9269V24.8881ZM40.4712 23.1025C40.4712 23.1025 40.5926 23.1025 40.7141 23.1025H40.4712ZM43.7496 23.7624V23.84H43.8103C43.8103 23.84 43.8103 23.7624 43.7496 23.7624ZM54.1919 24.4611C54.1919 24.4611 54.1919 24.4611 54.1312 24.4611H54.1919ZM74.7731 4.85834V4.78071H74.8338C74.8338 4.78071 74.8338 4.78071 74.8338 4.85834H74.7731ZM45.5102 1.90822C45.5102 1.90822 45.5102 1.90822 45.4495 1.90822H45.5102ZM26.4469 3.07274C26.4469 3.07274 26.4469 3.07274 26.5076 3.07274C26.5076 3.07274 26.5076 3.07274 26.4469 3.07274ZM8.23354 23.2966C8.23354 23.2966 8.23354 23.5295 8.35496 23.6459C8.35496 23.6459 8.35496 23.6071 8.35496 23.5683C8.35496 23.4907 8.29425 23.413 8.29425 23.2966H8.23354ZM57.1668 24.2282C57.1668 24.2282 57.1668 24.3835 57.4096 24.3835C57.4096 24.3835 57.2275 24.3058 57.1668 24.2282ZM72.7696 19.3372V19.2596C72.7696 19.2596 72.7696 19.2984 72.7696 19.3372ZM85.5189 11.2632C85.5189 11.2632 85.5189 11.2632 85.5189 11.2244C85.5189 11.2244 85.5189 11.2244 85.5189 11.2632ZM85.3368 8.23545H85.4582C85.4582 8.19663 85.3368 8.23545 85.3368 8.23545ZM81.4513 2.49048V2.33521H81.3906C81.3906 2.33521 81.3906 2.45167 81.4513 2.49048ZM55.649 4.93598C55.649 4.93598 55.5276 4.93598 55.4669 4.93598H55.649ZM48.4244 1.4036C48.4244 1.4036 48.303 1.36478 48.2422 1.32596C48.2422 1.32596 48.303 1.4036 48.4244 1.4036ZM43.5675 1.6365C43.5675 1.6365 43.3853 1.86941 43.3246 1.94704C43.4461 1.86941 43.6282 1.79177 43.5675 1.6365ZM28.5718 2.68457C28.5718 2.68457 28.5111 2.68457 28.4504 2.68457C28.4504 2.68457 28.5111 2.68457 28.5718 2.68457Z" fill="#C1268D"/>
</svg>