<svg xmlns="http://www.w3.org/2000/svg" width="166" height="52" viewBox="0 0 166 52" fill="none">
  <ellipse cx="55.6604" cy="28.162" rx="9.39358" ry="7.98626" fill="#59D2F9"/>
  <ellipse cx="149.035" cy="28.162" rx="9.39358" ry="7.98626" fill="#59D2F9"/>
  <path d="M36.0153 27.6129L35.9424 33.0771C35.8938 38.1286 34.144 42.4029 30.6932 45.9C27.2909 49.3486 23.0624 51.0729 18.0076 51.0729C13.0015 51.0729 8.74865 49.3243 5.24919 45.8271C1.74973 42.33 0 38.08 0 33.0771V6.55715C0 4.71143 0.631847 3.15714 1.89554 1.89429C3.15923 0.631429 4.71455 0 6.56149 0H9.55061C11.3489 0 12.9043 0.655715 14.2166 1.96714C15.5289 3.23 16.1607 4.76 16.1121 6.55715L16.0392 11.5843L24.8607 11.6571C26.173 11.6571 27.2909 12.1429 28.2144 13.1143C29.1865 14.0371 29.6725 15.1543 29.6725 16.4657C29.6725 17.7771 29.1865 18.9186 28.2144 19.89C27.2909 20.8129 26.173 21.2743 24.8607 21.2743H16.0392V27.6129C16.0392 29.0214 16.5495 30.2357 17.5702 31.2557C18.5909 32.2757 19.806 32.7857 21.2155 32.7857C22.6736 32.7857 23.8887 32.3 24.8607 31.3286C25.8814 30.3086 26.3918 29.0943 26.3918 27.6857C26.3918 26.2286 26.8292 25.0629 27.7041 24.1886C28.6275 23.3143 29.794 22.8771 31.2035 22.8771C32.5158 22.8771 33.6337 23.3386 34.5572 24.2614C35.5292 25.1843 36.0153 26.3014 36.0153 27.6129Z" fill="white"/>
  <path d="M71.5299 26.6657C71.5299 29.6771 70.4849 32.2271 68.395 34.3157C66.3536 36.4043 63.8262 37.4486 60.8128 37.4486H57.2404C55.7823 37.4486 55.0533 38.1771 55.0533 39.6343C55.0533 41.0914 55.7823 41.82 57.2404 41.82H66.6452C67.9575 41.82 69.0511 42.2814 69.926 43.2043C70.8494 44.0786 71.3112 45.1714 71.3112 46.4829C71.3112 47.7943 70.8494 48.9114 69.926 49.8343C69.0511 50.7086 67.9575 51.1457 66.6452 51.1457H56.6572C51.7482 51.1457 47.5926 49.4457 44.1904 46.0457C40.7881 42.5971 39.087 38.42 39.087 33.5143C39.087 28.6086 40.7881 24.4557 44.1904 21.0557C47.5926 17.6557 51.7482 15.9557 56.6572 15.9557H60.8128C63.7776 15.9557 66.305 17 68.395 19.0886C70.4849 21.1771 71.5299 23.7029 71.5299 26.6657ZM62.7083 26.52C62.7083 25.84 62.4653 25.2571 61.9793 24.7714C61.4932 24.2857 60.91 24.0429 60.2295 24.0429C58.5284 24.0429 57.6779 24.8686 57.6779 26.52C57.6779 28.22 58.5284 29.07 60.2295 29.07C61.8821 29.07 62.7083 28.22 62.7083 26.52ZM57.8237 22.5857C57.8237 21.42 57.2404 20.8371 56.0739 20.8371C54.9075 20.8371 54.3242 21.42 54.3242 22.5857C54.3242 23.7514 54.9075 24.3343 56.0739 24.3343C57.2404 24.3343 57.8237 23.7514 57.8237 22.5857ZM56.5843 29.1429C56.5843 27.88 56.1225 26.8114 55.1991 25.9371C54.3242 25.0143 53.2549 24.5529 51.9912 24.5529C50.6789 24.5529 49.5611 24.99 48.6376 25.8643C47.7627 26.7386 47.3253 27.8314 47.3253 29.1429C47.3253 30.4543 47.7627 31.5714 48.6376 32.4943C49.5611 33.3686 50.6789 33.8057 51.9912 33.8057C53.3035 33.8057 54.3971 33.3686 55.272 32.4943C56.1468 31.5714 56.5843 30.4543 56.5843 29.1429Z" fill="white"/>
  <path d="M130.319 46.2643C130.319 47.6243 129.857 48.7657 128.934 49.6886C128.059 50.6114 126.941 51.0729 125.58 51.0729C124.219 51.0729 123.077 50.6357 122.154 49.7614C121.23 48.8386 120.768 47.6971 120.768 46.3371V37.9586C120.768 36.55 120.258 35.3357 119.237 34.3157C118.217 33.2957 117.002 32.7857 115.592 32.7857C114.183 32.7857 112.967 33.2471 111.947 34.17C110.926 35.0443 110.416 36.1857 110.416 37.5943V46.2643C110.416 47.6243 109.954 48.7657 109.031 49.6886C108.156 50.6114 107.038 51.0729 105.677 51.0729C104.316 51.0729 103.174 50.6357 102.25 49.7614C101.327 48.8386 100.865 47.6971 100.865 46.3371V37.9586C100.865 36.55 100.355 35.3357 99.3342 34.3157C98.3135 33.2957 97.0984 32.7857 95.6889 32.7857C94.2308 32.7857 92.9914 33.2957 91.9707 34.3157C90.9987 35.2871 90.5126 36.5014 90.5126 37.9586V44.5157C90.5126 46.3129 89.8565 47.8671 88.5442 49.1786C87.2805 50.4414 85.7495 51.0729 83.9511 51.0729H80.962C79.1637 51.0729 77.6084 50.4414 76.2961 49.1786C75.0324 47.8671 74.4005 46.3129 74.4005 44.5157V22.5129C74.4005 20.7157 75.0324 19.1857 76.2961 17.9229C77.6084 16.6114 79.1637 15.9557 80.962 15.9557H81.4724C82.9305 15.9557 84.2428 16.4171 85.4093 17.34C87.645 16.3686 89.978 15.8829 92.4082 15.8829C96.0534 15.8829 99.3828 16.9029 102.396 18.9429C105.41 16.9514 108.715 15.9557 112.311 15.9557C117.269 15.9557 121.497 17.7043 124.997 21.2014C128.545 24.6986 130.319 28.9243 130.319 33.8786V46.2643Z" fill="white"/>
  <path d="M165.794 26.6657C165.794 29.6771 164.749 32.2271 162.659 34.3157C160.618 36.4043 158.091 37.4486 155.077 37.4486H151.505C150.047 37.4486 149.318 38.1771 149.318 39.6343C149.318 41.0914 150.047 41.82 151.505 41.82H160.91C162.222 41.82 163.316 42.2814 164.19 43.2043C165.114 44.0786 165.576 45.1714 165.576 46.4829C165.576 47.7943 165.114 48.9114 164.19 49.8343C163.316 50.7086 162.222 51.1457 160.91 51.1457H150.922C146.013 51.1457 141.857 49.4457 138.455 46.0457C135.053 42.5971 133.351 38.42 133.351 33.5143C133.351 28.6086 135.053 24.4557 138.455 21.0557C141.857 17.6557 146.013 15.9557 150.922 15.9557H155.077C158.042 15.9557 160.569 17 162.659 19.0886C164.749 21.1771 165.794 23.7029 165.794 26.6657ZM156.973 26.52C156.973 25.84 156.73 25.2571 156.244 24.7714C155.758 24.2857 155.174 24.0429 154.494 24.0429C152.793 24.0429 151.942 24.8686 151.942 26.52C151.942 28.22 152.793 29.07 154.494 29.07C156.146 29.07 156.973 28.22 156.973 26.52ZM152.088 22.5857C152.088 21.42 151.505 20.8371 150.338 20.8371C149.172 20.8371 148.589 21.42 148.589 22.5857C148.589 23.7514 149.172 24.3343 150.338 24.3343C151.505 24.3343 152.088 23.7514 152.088 22.5857ZM150.849 29.1429C150.849 27.88 150.387 26.8114 149.463 25.9371C148.589 25.0143 147.519 24.5529 146.256 24.5529C144.943 24.5529 143.825 24.99 142.902 25.8643C142.027 26.7386 141.59 27.8314 141.59 29.1429C141.59 30.4543 142.027 31.5714 142.902 32.4943C143.825 33.3686 144.943 33.8057 146.256 33.8057C147.568 33.8057 148.662 33.3686 149.536 32.4943C150.411 31.5714 150.849 30.4543 150.849 29.1429Z" fill="white"/>
</svg>