<svg xmlns="http://www.w3.org/2000/svg" width="234" height="73" viewBox="0 0 234 73" fill="none">
  <ellipse cx="78.461" cy="39.7582" rx="13.2416" ry="11.2747" fill="#59D2F9"/>
  <ellipse cx="210.086" cy="39.7582" rx="13.2416" ry="11.2747" fill="#59D2F9"/>
  <path d="M50.7685 38.9829L50.6657 46.6971C50.5972 53.8286 48.1307 59.8629 43.2663 64.8C38.4703 69.6686 32.5097 72.1029 25.3843 72.1029C18.3274 72.1029 12.3324 69.6343 7.39946 64.6971C2.46649 59.76 0 53.76 0 46.6971V9.25715C0 6.65143 0.890676 4.45714 2.67203 2.67429C4.45338 0.891429 6.64581 0 9.24933 0H13.4629C15.9979 0 18.1903 0.925715 20.0402 2.77714C21.8901 4.56 22.7807 6.72 22.7122 9.25715L22.6095 16.3543L35.0447 16.4571C36.8945 16.4571 38.4703 17.1429 39.7721 18.5143C41.1424 19.8171 41.8275 21.3943 41.8275 23.2457C41.8275 25.0971 41.1424 26.7086 39.7721 28.08C38.4703 29.3829 36.8945 30.0343 35.0447 30.0343H22.6095V38.9829C22.6095 40.9714 23.3288 42.6857 24.7676 44.1257C26.2064 45.5657 27.9193 46.2857 29.9061 46.2857C31.9616 46.2857 33.6744 45.6 35.0447 44.2286C36.4834 42.7886 37.2028 41.0743 37.2028 39.0857C37.2028 37.0286 37.8195 35.3829 39.0527 34.1486C40.3545 32.9143 41.9988 32.2971 43.9857 32.2971C45.8355 32.2971 47.4114 32.9486 48.7131 34.2514C50.0834 35.5543 50.7685 37.1314 50.7685 38.9829Z" fill="white"/>
  <path d="M100.831 37.6457C100.831 41.8971 99.3582 45.4971 96.4122 48.4457C93.5346 51.3943 89.9719 52.8686 85.7241 52.8686H80.6883C78.6329 52.8686 77.6052 53.8971 77.6052 55.9543C77.6052 58.0114 78.6329 59.04 80.6883 59.04H93.9457C95.7955 59.04 97.3371 59.6914 98.5703 60.9943C99.8721 62.2286 100.523 63.7714 100.523 65.6229C100.523 67.4743 99.8721 69.0514 98.5703 70.3543C97.3371 71.5886 95.7955 72.2057 93.9457 72.2057H79.8661C72.9463 72.2057 67.0884 69.8057 62.2924 65.0057C57.4965 60.1371 55.0985 54.24 55.0985 47.3143C55.0985 40.3886 57.4965 34.5257 62.2924 29.7257C67.0884 24.9257 72.9463 22.5257 79.8661 22.5257H85.7241C89.9034 22.5257 93.4661 24 96.4122 26.9486C99.3582 29.8971 100.831 33.4629 100.831 37.6457ZM88.3961 37.44C88.3961 36.48 88.0535 35.6571 87.3684 34.9714C86.6832 34.2857 85.8611 33.9429 84.9019 33.9429C82.5039 33.9429 81.3049 35.1086 81.3049 37.44C81.3049 39.84 82.5039 41.04 84.9019 41.04C87.2314 41.04 88.3961 39.84 88.3961 37.44ZM81.5105 31.8857C81.5105 30.24 80.6883 29.4171 79.044 29.4171C77.3997 29.4171 76.5775 30.24 76.5775 31.8857C76.5775 33.5314 77.3997 34.3543 79.044 34.3543C80.6883 34.3543 81.5105 33.5314 81.5105 31.8857ZM79.7634 41.1429C79.7634 39.36 79.1125 37.8514 77.8107 36.6171C76.5775 35.3143 75.0702 34.6629 73.2888 34.6629C71.439 34.6629 69.8632 35.28 68.5614 36.5143C67.3282 37.7486 66.7116 39.2914 66.7116 41.1429C66.7116 42.9943 67.3282 44.5714 68.5614 45.8743C69.8632 47.1086 71.439 47.7257 73.2888 47.7257C75.1387 47.7257 76.6803 47.1086 77.9135 45.8743C79.1468 44.5714 79.7634 42.9943 79.7634 41.1429Z" fill="white"/>
  <path d="M183.703 65.3143C183.703 67.2343 183.052 68.8457 181.75 70.1486C180.517 71.4514 178.941 72.1029 177.023 72.1029C175.104 72.1029 173.494 71.4857 172.192 70.2514C170.891 68.9486 170.24 67.3371 170.24 65.4171V53.5886C170.24 51.6 169.52 49.8857 168.082 48.4457C166.643 47.0057 164.93 46.2857 162.943 46.2857C160.956 46.2857 159.243 46.9371 157.805 48.24C156.366 49.4743 155.646 51.0857 155.646 53.0743V65.3143C155.646 67.2343 154.995 68.8457 153.694 70.1486C152.46 71.4514 150.885 72.1029 148.966 72.1029C147.048 72.1029 145.438 71.4857 144.136 70.2514C142.834 68.9486 142.183 67.3371 142.183 65.4171V53.5886C142.183 51.6 141.464 49.8857 140.025 48.4457C138.587 47.0057 136.874 46.2857 134.887 46.2857C132.831 46.2857 131.084 47.0057 129.645 48.4457C128.275 49.8171 127.59 51.5314 127.59 53.5886V62.8457C127.59 65.3829 126.665 67.5771 124.815 69.4286C123.034 71.2114 120.876 72.1029 118.341 72.1029H114.127C111.592 72.1029 109.4 71.2114 107.55 69.4286C105.769 67.5771 104.878 65.3829 104.878 62.8457V31.7829C104.878 29.2457 105.769 27.0857 107.55 25.3029C109.4 23.4514 111.592 22.5257 114.127 22.5257H114.847C116.902 22.5257 118.752 23.1771 120.396 24.48C123.548 23.1086 126.836 22.4229 130.262 22.4229C135.401 22.4229 140.094 23.8629 144.342 26.7429C148.589 23.9314 153.248 22.5257 158.318 22.5257C165.307 22.5257 171.267 24.9943 176.2 29.9314C181.202 34.8686 183.703 40.8343 183.703 47.8286V65.3143Z" fill="white"/>
  <path d="M233.71 37.6457C233.71 41.8971 232.237 45.4971 229.291 48.4457C226.413 51.3943 222.851 52.8686 218.603 52.8686H213.567C211.512 52.8686 210.484 53.8971 210.484 55.9543C210.484 58.0114 211.512 59.04 213.567 59.04H226.824C228.674 59.04 230.216 59.6914 231.449 60.9943C232.751 62.2286 233.402 63.7714 233.402 65.6229C233.402 67.4743 232.751 69.0514 231.449 70.3543C230.216 71.5886 228.674 72.2057 226.824 72.2057H212.745C205.825 72.2057 199.967 69.8057 195.171 65.0057C190.375 60.1371 187.977 54.24 187.977 47.3143C187.977 40.3886 190.375 34.5257 195.171 29.7257C199.967 24.9257 205.825 22.5257 212.745 22.5257H218.603C222.782 22.5257 226.345 24 229.291 26.9486C232.237 29.8971 233.71 33.4629 233.71 37.6457ZM221.275 37.44C221.275 36.48 220.932 35.6571 220.247 34.9714C219.562 34.2857 218.74 33.9429 217.781 33.9429C215.383 33.9429 214.184 35.1086 214.184 37.44C214.184 39.84 215.383 41.04 217.781 41.04C220.11 41.04 221.275 39.84 221.275 37.44ZM214.389 31.8857C214.389 30.24 213.567 29.4171 211.923 29.4171C210.278 29.4171 209.456 30.24 209.456 31.8857C209.456 33.5314 210.278 34.3543 211.923 34.3543C213.567 34.3543 214.389 33.5314 214.389 31.8857ZM212.642 41.1429C212.642 39.36 211.991 37.8514 210.689 36.6171C209.456 35.3143 207.949 34.6629 206.168 34.6629C204.318 34.6629 202.742 35.28 201.44 36.5143C200.207 37.7486 199.59 39.2914 199.59 41.1429C199.59 42.9943 200.207 44.5714 201.44 45.8743C202.742 47.1086 204.318 47.7257 206.168 47.7257C208.017 47.7257 209.559 47.1086 210.792 45.8743C212.026 44.5714 212.642 42.9943 212.642 41.1429Z" fill="white"/>
</svg>